<?xml version="1.0" encoding="iso-8859-1"?>
<!-- Generator: Adobe Illustrator 19.0.0, SVG Export Plug-In . SVG Version: 6.00 Build 0)  -->
<svg version="1.1" id="Capa_1" xmlns="http://www.w3.org/2000/svg" xmlns:xlink="http://www.w3.org/1999/xlink" x="0px" y="0px"
	 viewBox="0 0 512 512" style="enable-background:new 0 0 512 512;" xml:space="preserve">
<g>
	<g>
		<path d="M220.277,128.564h-4.253v-4.253c0-8.284-6.716-15-15-15s-15,6.716-15,15v4.253h-4.253c-8.284,0-15,6.716-15,15
			s6.716,15,15,15h4.253v4.253c0,8.284,6.716,15,15,15s15-6.716,15-15v-4.253h4.253c8.284,0,15-6.716,15-15
			S228.561,128.564,220.277,128.564z"/>
	</g>
</g>
<g>
	<g>
		<path d="M201.023,360.841c-8.284,0-15,6.716-15,15v17.637c0,8.284,6.716,15,15,15s15-6.716,15-15v-17.637
			C216.023,367.557,209.309,360.841,201.023,360.841z"/>
	</g>
</g>
<g>
	<g>
		<circle cx="173.16" cy="68.938" r="15"/>
	</g>
</g>
<g>
	<g>
		<circle cx="228.89" cy="68.938" r="15"/>
	</g>
</g>
<g>
	<g>
		<path d="M359.864,238.743h-2.12c-21.055,0-38.184,17.129-38.184,38.184v156.85v24.244v13.711c0,5.662-4.606,10.269-10.269,10.269
			h-21.195V15c0-8.284-6.716-15-15-15H128.952c-8.284,0-15,6.716-15,15v482c0,8.284,6.716,15,15,15h144.145h36.195
			c22.204,0,40.269-18.064,40.269-40.269v-0.082c27.674-5.936,48.488-30.577,48.488-59.997V276.927
			C398.048,255.873,380.918,238.743,359.864,238.743z M258.096,482H143.952v-34.917h114.145V482z M258.096,417.083H143.952V30
			h114.145V417.083z M349.56,440.253v-6.476v-156.85c0-4.513,3.671-8.184,8.184-8.184h2.12c4.513,0,8.184,3.671,8.184,8.184v134.725
			h0C368.048,424.36,360.451,435.328,349.56,440.253z"/>
	</g>
</g>
<g>
</g>
<g>
</g>
<g>
</g>
<g>
</g>
<g>
</g>
<g>
</g>
<g>
</g>
<g>
</g>
<g>
</g>
<g>
</g>
<g>
</g>
<g>
</g>
<g>
</g>
<g>
</g>
<g>
</g>
</svg>
